<svg xmlns="http://www.w3.org/2000/svg" viewBox="0 0 1431.99 724.25"><defs><style>.cls-1{fill:#fff;}.cls-2{fill:#2c3f48;}.cls-3{fill:#6a3cf0;}.cls-4{fill:#74d557;}.cls-5{fill:#f0dc0c;}.cls-6{fill:#ff5e62;}.cls-7{fill:#51c5f0;}</style></defs><g id="or"><path class="cls-1" d="M1391.18,561.39a25.07,25.07,0,0,1-17.19,8.78l-41,3.19c-.61.06-1.26.09-1.93.09a21.55,21.55,0,0,1-4.07-.37,13.64,13.64,0,0,0-2.38-.19,14.22,14.22,0,0,0-4.46.73,26.55,26.55,0,0,1-6,1.23l-41.19,3.2c-.62.05-1.27.08-1.94.08A25.37,25.37,0,0,1,1250.88,568l-3.06-4.07a14,14,0,0,0-11.21-5.64,16.31,16.31,0,0,0-2,.14,14.07,14.07,0,0,0-11.16,8.92,25.21,25.21,0,0,1-21.65,16.24l-40.94,3.2c-.61,0-1.26.08-1.93.08a24.35,24.35,0,0,1-4.07-.37,13.41,13.41,0,0,0-2.38-.19,13.85,13.85,0,0,0-4.43.73,24.9,24.9,0,0,1-6,1.2l-40.91,3.2c-.65.06-1.32.08-2,.08a25.08,25.08,0,0,1-16.43-6.17,13.94,13.94,0,0,0-16.52-1.31c-2.49,1.51-5.1,3-7.79,4.29a97.78,97.78,0,0,1-36,9.53c-3.81.28-7.54.45-11.16.45a113.37,113.37,0,0,1-31.63-4.29,13.53,13.53,0,0,0-3.93-.56,13.89,13.89,0,0,0-9.22,3.48,25.62,25.62,0,0,1-14.67,6.19l-46.75,3.65c-.61.06-1.29.08-1.93.08a25,25,0,0,1-14.7-4.68,13.82,13.82,0,0,0-8.18-2.64,14,14,0,0,0-9.87,4,24.73,24.73,0,0,1-15.71,7.15L813.76,614c-.65,0-1.32.06-2,.06a25.23,25.23,0,0,1-21.15-11.59,14,14,0,0,0-9.28-6.16,14.94,14.94,0,0,0-2.47-.23,14,14,0,0,0-8.38,2.81,127.4,127.4,0,0,1-17.33,10.82,119,119,0,0,1-45.63,12.84c-3.28.26-6.61.37-9.84.37a116.56,116.56,0,0,1-37.24-6,119.91,119.91,0,0,1-39.31-21.76A115.65,115.65,0,0,1,592.79,560a112.48,112.48,0,0,1-10.07-26.81,14,14,0,0,0-13.49-10.77h-.17a14,14,0,0,0-13.54,10.46c-7.18,27.4-21.15,53.78-41.53,78.46-43,52-99.5,78.44-168,78.44l-3.56,0c-76.24-1-136.06-32.95-177.81-94.84-30.37-45.06-39.91-95.48-28.33-149.94a13.89,13.89,0,0,0-.87-8.53c-33.9-77.65-66.68-153.11-94.27-216.68-17-39.2.87-84.66,40.74-103.48a96,96,0,0,1,40.78-9.36,82.9,82.9,0,0,1,49.6,16,13.87,13.87,0,0,0,8.3,2.75,14.22,14.22,0,0,0,5.58-1.15,14.06,14.06,0,0,0,8.36-11.22A82,82,0,0,1,261,42.92a111.64,111.64,0,0,1,19.88-1.85c23.45,0,43.67,8.16,60.15,24.25,14.33,14.05,22.27,31.55,23.53,52.05l1.35,22.18c1.23,20.3,2.49,41.31,3.95,62.17,1,14.22,2.13,28.63,3,39.6a14,14,0,0,0,13,12.9,83.45,83.45,0,0,1,26.83,6.42,13.7,13.7,0,0,0,5.47,1.12,14.19,14.19,0,0,0,6.11-1.4,76.5,76.5,0,0,1,32.45-7.55l1.2,0a76,76,0,0,1,41.45,11.94,14,14,0,0,0,19.35-4.06c5-7.55,13.88-14.53,26.5-20.76a14,14,0,0,0,7.77-13.76c-.26-3-.54-6.17-.84-9.54l-.12-1.37c-3.25-35.59-3.11-48.82-1.12-68.23,1.54-14,2.89-23,5.64-30.12,5.3-13.79,16.54-21.73,30.82-21.73.59,0,1.23,0,1.88.06s1,0,1.51.11.7.08,1.07.14a15.46,15.46,0,0,0,1.9.11,14,14,0,0,0,12.73-8.1c11-23.81,33.32-50.2,56.26-52,1.2-.12,2.49-.14,3.75-.14a43.66,43.66,0,0,1,30.29,11.86C714.94,64.15,722,95.83,721.64,160.27v.31l.06,4.24,0,.19c.09,6.31.23,13.46.4,20.22a14,14,0,0,0,8.55,12.54,14.31,14.31,0,0,0,5.47,1.09,14,14,0,0,0,9.48-3.67,68.06,68.06,0,0,1,13.74-9.85,13.93,13.93,0,0,0,7.34-10.48c4.27-31.44,13.46-78,18.9-90.89l.09-.17A32,32,0,0,1,813.09,64c.86-.06,1.76-.08,2.63-.08,7.26,0,14.7,2.32,22.07,6.92l.14.09c21.4,13,21.62,36.37,19,57.48l-.08.76-.28,4.15c-.37,5.19-.9,13-1.1,18.34A114.21,114.21,0,0,1,853.75,170a14.12,14.12,0,0,0-.26,3.61c.28,4.55.28,9.85.26,16.91a14,14,0,0,0,10.09,13.58,14.63,14.63,0,0,0,3.93.56A14,14,0,0,0,879.66,198c8.47-13.57,18.14-23.81,28.74-30.43l.2-.11a50.39,50.39,0,0,1,23.78-7.82c1.34-.11,2.72-.14,4.09-.14a50.57,50.57,0,0,1,12.93,1.62,12.89,12.89,0,0,0,3.59.48,14.35,14.35,0,0,0,3.45-.42,32.2,32.2,0,0,1,5.21-.87h.23c.31,0,1.32-.08,2.41-.08,8.24,0,16.29,3.14,23.25,9.08,7.68,6.59,11.69,16.63,12.59,31.66a14,14,0,0,0,14,13.18,13,13,0,0,0,1.74-.11,37.12,37.12,0,0,1,4.76-.28c.68,0,1.38,0,2.16.06,14,.75,28.91,11,28.61,31.77v.17c0,15.28-4.69,35.52-9.17,46.24-.06.19-.14.36-.2.53-.7,1.88-2.47,7.32-3.93,12.14a4,4,0,0,1-.14.45c-3.7,14.05-10.51,26.47-19.65,35.92a14,14,0,0,0,8.27,23.67l1.49.2a103.68,103.68,0,0,1,22.29,5.69s.08,0,.14.06h0a13.85,13.85,0,0,0,4.82.86,14,14,0,0,0,10.54-4.79,25.17,25.17,0,0,1,17-8.5l40.91-3.19c.67-.06,1.35-.09,2-.09a24.37,24.37,0,0,1,4.12.34,14.12,14.12,0,0,0,6.76-.53,25.87,25.87,0,0,1,6-1.21l43.36-3.39c.59,0,1.26-.06,1.93-.06a25.32,25.32,0,0,1,20.16,10.07l1.74,2.33a14.12,14.12,0,0,0,11.22,5.58,14.3,14.3,0,0,0,1.6-.09,14,14,0,0,0,11.21-8.24,26.07,26.07,0,0,1,3.93-6.23,25.13,25.13,0,0,1,17.22-8.75L1296,341.6c.68-.06,1.32-.09,2-.09a24.75,24.75,0,0,1,4.13.34,13,13,0,0,0,2.32.19,13.83,13.83,0,0,0,4.43-.7,26.11,26.11,0,0,1,6-1.23l41-3.2c.59-.05,1.26-.08,1.9-.08a25.28,25.28,0,0,1,25.19,23.27l14.3,182.95A25,25,0,0,1,1391.18,561.39Z"/><path class="cls-2" d="M229.77,286.44c-.46-5.83-1-11.66-1.36-17.49q-4.57-71.59-9.12-143.18c-1.76-27.19,18.62-53.08,46.1-58,21.7-3.91,41.58-.35,57.92,15.62,9.92,9.7,15.13,21.69,16,35.57,1.74,28.18,3.35,56.38,5.32,84.55,1.91,27.2,4.21,54.37,6.35,81.76,23.62-9.47,47.22-8.7,68.73,9.12,10.38-10.49,22.8-16.1,37.44-16.33,24.55-.4,44.48,15.88,49.61,39.83,5.55,25.87,11.7,51.62,17.09,77.52a60,60,0,0,1,.42,18.59,24.53,24.53,0,0,0,1.19,11c20.68,62.37,10.77,119.71-31,170.26-39,47.29-90.73,70.06-151.75,69.24-66.32-.9-119.89-28.38-157.22-83.73-28.08-41.63-35.06-87.82-23.17-136.68a16,16,0,0,0-.88-11Q112.73,321.48,64.29,209.73c-11.56-26.61,1-57.69,28.35-70.61,29.63-14,62.36-6.46,78.47,19,5.93,9.39,9.75,20.14,14.24,30.4q20.82,47.55,41.4,95.19c.44,1,1,2,1.48,3ZM192.25,518.06c1.36-2.39,2.17-3.7,2.88-5.07q12.31-24,24.59-47.94c11.75-23,24-45.76,35-69.08,8.92-18.83,22.35-32,42.23-37.92,7.41-2.23,15.27-3,23.46-4.49a63,63,0,0,1-.37-34.23,5,5,0,0,0-.07-1.44q-3.44-54.3-6.87-108.59-2.76-44-5.44-87.94c-.56-9.41-4.79-16.45-12.82-21.27C288,96,280.51,95.91,272.93,97a25.49,25.49,0,0,0-21.88,26.78q1,18,2.13,36,4,63.18,8,126.36c1.28,20.34,2.5,40.69,3.82,61,.36,5.55-1.42,10.16-5.82,13.53a108.31,108.31,0,0,1-10.7,7.34,15.81,15.81,0,0,1-22.43-7c-.89-1.88-1.65-3.82-2.48-5.73q-38.31-88.12-76.66-176.24c-6.92-15.87-22.34-20.93-39.46-13.57-10.88,4.67-20.26,18.5-12.37,36.36,33.46,75.75,66.26,151.78,99.33,227.69a19.7,19.7,0,0,1,.65,14.45C187.64,468,186.71,492.26,192.25,518.06ZM351.52,634.88c26.59-2.4,46-7.19,64.17-16.1a7.41,7.41,0,0,0,3.65-5.21c.74-18.78-5.3-35-19.21-48-24.44-22.76-52.82-28-84.37-18.76-8.87,2.59-16.57.82-21.36-5.34-5.27-6.76-4.2-13.47-.29-20.59q25.23-46,50-92.23a25.38,25.38,0,0,0,3-11.85c-.26-13.34-9.07-23.86-21.86-27.1-13.33-3.38-27.6,2.08-34.33,13.36-2,3.28-3.27,6.95-5,10.37q-36.45,71.08-73,142.1c-2.14,4.15-2.27,7.24.63,11.26C249.15,616.18,298.2,636.68,351.52,634.88ZM340.89,508.71c27.26-.47,51,7,72.13,22.42s35.72,35.52,40.87,61.8c38.41-27,62.31-104.49,45-145.24-16,7.64-32.11,7.72-48.08-.12-15.49,28.57-57.48,41.37-88.68,22Zm36.34-66.51c8.72,7.37,18.3,8,28.64,5.09,13.63-3.79,21.75-16,18.83-29.68C419,391,413.08,364.36,407.07,337.78c-1.23-5.42-2.36-11.16-5-15.9-6.29-11.18-19.61-15-33.86-10.65-13.3,4-20.73,16-18.25,29.74a200.41,200.41,0,0,0,4.57,20.15,15.5,15.5,0,0,0,4.76,7.69A60.39,60.39,0,0,1,377.23,442.2Zm78.25-138.27A21.55,21.55,0,0,0,440,311.58c-2.74,3.24-5.07,6.51-3.92,11.63,7,31.25,13.71,62.59,20.58,93.88a9.05,9.05,0,0,0,2.06,4.14c6.93,7.27,18.89,8.85,27.95,3.83s13-14.63,10.69-25q-8.76-38.93-17.34-77.87C477.36,310.29,467.61,302.9,455.48,303.93Z"/><path class="cls-3" d="M192.25,518.06c-5.54-25.8-4.61-50.06,2.79-74a19.7,19.7,0,0,0-.65-14.45c-33.07-75.91-65.87-151.94-99.33-227.69-7.89-17.86,1.49-31.69,12.37-36.36,17.12-7.36,32.54-2.3,39.46,13.57q38.43,88.08,76.66,176.24c.83,1.91,1.59,3.85,2.48,5.73a15.81,15.81,0,0,0,22.43,7,108.31,108.31,0,0,0,10.7-7.34c4.4-3.37,6.18-8,5.82-13.53-1.32-20.33-2.54-40.68-3.82-61q-4-63.18-8-126.36-1.12-18-2.13-36A25.49,25.49,0,0,1,272.93,97c7.58-1.11,15.07-1,21.93,3.07,8,4.82,12.26,11.86,12.82,21.27q2.63,44,5.44,87.94,3.42,54.3,6.87,108.59a5,5,0,0,1,.07,1.44,63,63,0,0,0,.37,34.23c-8.19,1.52-16.05,2.26-23.46,4.49-19.88,6-33.31,19.09-42.23,37.92-11.05,23.32-23.27,46.09-35,69.08q-12.25,24-24.59,47.94C194.42,514.36,193.61,515.67,192.25,518.06Z"/><path class="cls-4" d="M351.52,634.88c-53.32,1.8-102.37-18.7-138.06-68-2.9-4-2.77-7.11-.63-11.26q36.63-71,73-142.1c1.75-3.42,3.05-7.09,5-10.37,6.73-11.28,21-16.74,34.33-13.36,12.79,3.24,21.6,13.76,21.86,27.1a25.38,25.38,0,0,1-3,11.85q-24.72,46.26-50,92.23c-3.91,7.12-5,13.83.29,20.59,4.79,6.16,12.49,7.93,21.36,5.34,31.55-9.23,59.93-4,84.37,18.76,13.91,12.95,19.95,29.18,19.21,48a7.41,7.41,0,0,1-3.65,5.21C397.48,627.69,378.11,632.48,351.52,634.88Z"/><path class="cls-5" d="M340.89,508.71l21.25-39.12c31.2,19.35,73.19,6.55,88.68-22,16,7.84,32.05,7.76,48.08.12,17.3,40.75-6.6,118.21-45,145.24-5.15-26.28-19.64-46.29-40.87-61.8S368.15,508.24,340.89,508.71Z"/><path class="cls-6" d="M377.23,442.2a60.39,60.39,0,0,0-18-73.39,15.5,15.5,0,0,1-4.76-7.69A200.41,200.41,0,0,1,349.93,341c-2.48-13.77,4.95-25.69,18.25-29.74,14.25-4.33,27.57-.53,33.86,10.65,2.67,4.74,3.8,10.48,5,15.9,6,26.58,12,53.18,17.63,79.83,2.92,13.7-5.2,25.89-18.83,29.68C395.53,450.16,386,449.57,377.23,442.2Z"/><path class="cls-7" d="M455.48,303.93c12.13-1,21.88,6.36,24.49,18.26q8.56,39,17.34,77.87c2.33,10.37-1.71,20-10.69,25s-21,3.44-27.95-3.83a9.05,9.05,0,0,1-2.06-4.14c-6.87-31.29-13.54-62.63-20.58-93.88-1.15-5.12,1.18-8.39,3.92-11.63A21.55,21.55,0,0,1,455.48,303.93Z"/><path class="cls-3" d="M706.27,223c-7.28-1.81-7.28-1.81-8.62-19-.7-9-1-25.5-1.21-38.77l-.08-4.69c.28-54.53-4.92-83.79-16.86-94.89a18.87,18.87,0,0,0-14.94-5c-10.33.8-28.73,21-36.47,40.09-10,25.72-13.77,43.56-22.25,106.09-1.16,8.64-2.33,17.16-3.12,20.24-.15-.74-.33-1.91-.55-3.74-2.77-24.52-5.26-67.43-4.92-79.12.94-15.66-1.9-23-9.25-23.79-7.49-.34-9.34,4.28-12.06,29.05-1.87,18.29-2,29.45,1.15,63.57,3.56,40.24,3.56,40.24-1.28,41.76-16.42,5.29-35.56,15.28-36.59,20.75-.59,3.78,0,6.64,1.71,8.5,1.89,2,5,2.86,9.57,2.5,5-.39,11.22-2.1,19.68-5.38,1.44-.54,2.73-1,3.89-1.49,3.42-1.32,5.68-2.2,7.48-2.34,3-.23,3.69,3,5.92,15.22.26,1.48.55,3.07.87,4.78,2.44,15,4.33,23,10.1,42.47,1.29,5.21,8.83,11,13.8,10.52,10.55-.82,13.53-9,12.78-35.13-1-35.43-.91-53.47,2.72-53.75,4.21-.33,11-2.06,24.22-6.15,3.37-1,6.23-1.87,8.53-2.61a39.72,39.72,0,0,1,7.49-2,3.06,3.06,0,0,1,2.37.49c1.11,1,1.09,4.1,1,9.16,0,1.48,0,3.14,0,5-.13,9.87,1,34.52,2,53.25,1.78,28.09,1.67,36.85-.5,40.73a13,13,0,0,0-1.19,9.89,18.54,18.54,0,0,0,8.56,11.29c3.61,1.89,6.43,2.78,8.79,2.78l.69,0c11.89-.93,15.42-22.63,12.21-74.91-1.4-23.36-2.29-45.83-2.3-51v-1.38a97,97,0,0,1,.31-10.33,1.4,1.4,0,0,0,.08-.34c.47-.49,2.38-1.06,6.27-1h.71c7.23,0,10.38-4.13,10.88-7.75C718.65,231.38,714.87,225.08,706.27,223Zm-37.56-2.75c.45,5.74.45,5.74-18.06,10.89l-2.17.59c-9.35,2.58-15,4.13-18.06,4.37-1.48.11-2.4-.05-2.87-.5-.84-.82-.74-3-.59-6.28l.09-1.91c1.6-27.81,14-96,20.67-114.08,5-14,13-25,16.73-25.35h.16a1.24,1.24,0,0,1,1.11.72c3,4.28,5.26,32.41,3.91,67.44h0C668.48,187,668.34,210.54,668.71,220.27Z"/><path class="cls-3" d="M1021.23,239c-6.51-.43-9.58,5.66-14.23,28.28-5,22.68-14.49,40.36-20.17,42.65a2.54,2.54,0,0,1-2.48-.12c-5.73-4.19-13.17-56-10.47-82.8,2.19-21.1,1.18-35.14-2.79-38.53-2.62-2.24-5-3.23-7.51-3-3.13.24-6,2.93-8.84,8.22-.5,1-.85,1.55-1.08,1.92,0-.18,0-.4-.07-.66-.92-6.36-9.56-10.94-19.28-10.16a25.55,25.55,0,0,0-12.29,4c-23,14.1-38.32,53.51-43.23,86.21-8.88,26.81-20.06,47.54-28.5,52.81-1.83,1.18-3.28,1.49-4.54,1-2.71-1.09-5-6-7.5-16.46-1.84-7.67-4.31-17.37-5.5-21.59-1.92-8.58-6.38-65.34-5.26-72.6.87-5.68,1.75-47.26-.14-48.84a3.78,3.78,0,0,1,1.09-2.67c.94-1.69,1.6-9.54,1.82-16.12.21-5.41.72-12.92,1.14-19,.13-2,.25-3.8.35-5.25,2.6-21,.85-29.26-7.17-34-3.67-2.33-6.88-3.41-9.56-3.2a7.06,7.06,0,0,0-6.19,4.67c-5.29,12.54-17.3,76.34-18.91,100.4-.44,9.59-.44,9.59-7.82,10.16-24.53,1.92-45.82,39.77-47.47,84.38-1.39,41.24,4.65,66,18.47,75.84a25,25,0,0,0,14.37,4.9c.56,0,1.13,0,1.7-.07,26.76-2.09,30.73-42.58,32.43-59.88l.07-.8c.61-7.6,1.1-13.67,1.83-14.77,1.08,1.08,3.25,8.54,5.73,17.11,6.68,24.55,12.31,33.42,24.1,38,5.25,2.14,10.12,3.1,14.09,2.79,8.09-.63,14.63-5.26,22.58-16a108.81,108.81,0,0,0,8.92-15.26c2.83,12.82,8.47,21.26,16.41,24.49a17.81,17.81,0,0,0,6.71,1.22c17.12-1.34,33.66-32.86,45.46-86.53a98.08,98.08,0,0,1,.94,11.89c1.14,14.56,6.83,61.2,32.57,61.2.56,0,1.13,0,1.72-.07,13.3-1,26-15.29,31-34.63,1.61-5.41,4-12.9,5.1-15.58,3.47-8.06,7.34-25.72,7.33-37.25C1026.24,240.74,1025.05,239.21,1021.23,239ZM943.54,218.8h0c-2.7,6.66-8.12,23.3-12.32,37.9C927.53,271,921.74,289,918.3,297c-3,8.29-7.33,17.67-9.7,20.92a20.18,20.18,0,0,1-2.52,3.16c-.52-1-.67-6.21-.88-13.83-.11-33.13.23-37.6,10.71-62.4,9.72-23.46,20-36.76,29.06-37.47.36,0,.83-.06,1.26-.06s.87,0,1,.2C947.78,208.34,945.81,213.19,943.54,218.8ZM784.36,247.52h0c-.65,6-2.3,23.64-3.26,39.66C779.72,303,777.41,322,776,329.43c-3.63,16.71-6.76,18.24-7.64,18.3a1.73,1.73,0,0,1-1.35-.62c-3.85-3.83-6.57-23.48-4.31-53.61,2.22-30.95,8.55-50.66,18.85-58.61,1.81-1.52,3-2.29,3.4-2.29a.2.2,0,0,1,.11,0C786.08,233.2,785,241.81,784.36,247.52Z"/><path class="cls-2" d="M781.89,463.15a92.12,92.12,0,0,0-22.32-27.53,96,96,0,0,0-31.28-17.32,94,94,0,0,0-118.82,58.33,91.88,91.88,0,0,0,5.6,71.6,91,91,0,0,0,22.2,27.55A95.73,95.73,0,0,0,668.42,593a92.09,92.09,0,0,0,29.23,4.67q3.92,0,7.88-.31a93.5,93.5,0,0,0,36-10.07,97.24,97.24,0,0,0,28.21-21.84A90.21,90.21,0,0,0,792,498.33,89,89,0,0,0,781.89,463.15Zm-33.1,58.63a50.75,50.75,0,0,1-10,17.15,55.29,55.29,0,0,1-16,12.33,54.16,54.16,0,0,1-59.07-6.44,51.62,51.62,0,0,1-12.43-15.41,51.14,51.14,0,0,1-3.12-39.92,51.58,51.58,0,0,1,9.89-17.16,53.55,53.55,0,0,1,36.3-18c1.52-.12,3-.18,4.54-.18a52.06,52.06,0,0,1,16.5,2.61,54.87,54.87,0,0,1,17.75,9.68,50.84,50.84,0,0,1,12.53,15.38,51.13,51.13,0,0,1,3.12,39.92Z"/><path class="cls-2" d="M926.57,492.84a65,65,0,0,0,5.58-32.17,71.17,71.17,0,0,0-6.77-25.93A58.15,58.15,0,0,0,910,415.21,62.56,62.56,0,0,0,887,403.58a85,85,0,0,0-29.43-2.41l-60.14,4.7,14.3,182.93,40.91-3.2-4.17-53.32L871,530.53l32.14,51.13L949.81,578l-41.49-62.67A56.35,56.35,0,0,0,926.57,492.84Zm-36.16-19.11a21.6,21.6,0,0,1-4.35,8.93,24.51,24.51,0,0,1-8.95,6.62,45.57,45.57,0,0,1-15.23,3.45L845.52,494l-4.12-52.58,16.37-1.28c11.27-.89,19.63.76,24.82,4.87s8,9.87,8.57,17.65A36.66,36.66,0,0,1,890.41,473.73Z"/><path class="cls-2" d="M1073.57,488.59a49.36,49.36,0,0,0-14.12-14.2,71.74,71.74,0,0,0-18-8.53c-6.22-1.95-12.49-3.66-18.59-5.07l-14-3.34a63.2,63.2,0,0,1-11-3.63,22.1,22.1,0,0,1-6.94-4.62,9,9,0,0,1-2.37-5.78,13.62,13.62,0,0,1,4-11c3.1-3.25,8.16-5.17,15-5.7,12.11-.95,21.71,3.35,29.25,13.14l2.79,3.63,32-29.15-3.47-3.1a116.4,116.4,0,0,0-12.37-9.64,71.36,71.36,0,0,0-14.38-7.45,79.56,79.56,0,0,0-16.86-4.28,91.73,91.73,0,0,0-20.08-.45,74.17,74.17,0,0,0-24.15,5.86A62,62,0,0,0,961.37,408a52,52,0,0,0-11.81,17.82,47.21,47.21,0,0,0-3.1,21.24c.69,8.74,2.93,16.05,6.68,21.72a47.82,47.82,0,0,0,13.73,13.78,63.52,63.52,0,0,0,17.75,8c6,1.7,12.23,3.29,18.41,4.71q7.07,1.54,13.77,3.11a66.47,66.47,0,0,1,11.25,3.62,22.82,22.82,0,0,1,7.3,4.83A9.51,9.51,0,0,1,1038,513c.37,4.78-1.14,9.13-4.62,13.29s-8.77,6.42-16.28,7a38.06,38.06,0,0,1-20-3.69,44.44,44.44,0,0,1-16.25-14.16l-2.72-3.75-34.8,30.75,3.3,3.16a111.31,111.31,0,0,0,31.13,20.94c9.64,4.37,20.88,6.57,33.53,6.57q4.47,0,9.17-.37a72.57,72.57,0,0,0,26.77-7,63.46,63.46,0,0,0,19.23-14.29,55.35,55.35,0,0,0,11.25-19.21,53.8,53.8,0,0,0,2.74-21.5C1079.71,501.9,1077.41,494.43,1073.57,488.59Z"/><rect class="cls-2" x="1091.94" y="381.53" width="41.03" height="183.48" transform="translate(-33.5 88.14) rotate(-4.47)"/><polygon class="cls-2" points="1257 369.95 1265.49 478.56 1187.94 375.35 1144.63 378.73 1158.93 561.66 1199.83 558.46 1191.05 446.07 1271.04 552.89 1312.21 549.68 1297.91 366.75 1257 369.95"/><rect class="cls-2" x="1323.86" y="363.4" width="41.03" height="183.48" transform="translate(-31.39 106.19) rotate(-4.47)"/></g></svg>